<svg width="93" height="117" viewBox="0 0 93 117" fill="none" xmlns="http://www.w3.org/2000/svg">
<path d="M46.5303 18.4647C39.1651 18.4647 33.2017 24.4281 33.2017 31.7933C33.2017 37.3054 36.5516 42.0571 41.3272 44.0766C41.3747 40.8217 41.4222 35.0245 41.4697 34.0979C41.4697 33.9079 41.4222 33.7653 41.2559 33.6465C40.9945 33.4802 40.7569 33.3139 40.5194 33.1238C39.6403 32.4111 39.2839 31.4132 39.1651 30.3203C39.0463 29.2987 39.0938 28.277 39.2601 27.2792C39.3552 26.709 39.474 26.1387 39.7353 25.6161C39.7828 25.4973 39.8779 25.4022 39.9967 25.4497C40.0679 25.4735 40.1392 25.6161 40.1392 25.6873C40.163 26.3051 40.163 26.9465 40.163 27.5643C40.163 28.3958 40.1392 29.2274 40.1392 30.0827C40.1392 30.3678 40.2818 30.5104 40.5194 30.5104C40.7569 30.5104 40.8757 30.3678 40.8757 30.1065C40.8757 29.1799 40.8757 28.2533 40.8757 27.3029C40.8757 26.7802 40.8757 26.2338 40.8995 25.7111C40.8995 25.4735 41.0658 25.3072 41.2796 25.2834C41.4935 25.2834 41.6835 25.426 41.6835 25.6636C41.7073 26.0912 41.6835 26.5189 41.6835 26.9228C41.6835 27.9682 41.6835 29.0373 41.6835 30.0827C41.6835 30.3203 41.8261 30.4866 42.0637 30.4866C42.2775 30.4866 42.4438 30.344 42.4438 30.0827C42.4438 30.0352 42.4438 29.9877 42.4438 29.9402C42.4438 28.5384 42.4438 27.1129 42.4438 25.7111C42.4438 25.4497 42.6101 25.2597 42.8477 25.2597C43.0853 25.2597 43.2516 25.426 43.2754 25.6873C43.2754 25.7586 43.2754 25.8299 43.2754 25.9012C43.2754 27.3029 43.2754 28.7047 43.2754 30.1065C43.2754 30.2015 43.3229 30.3203 43.3942 30.3916C43.4892 30.5104 43.6555 30.5341 43.7981 30.4628C43.9881 30.3916 44.0357 30.2253 44.0357 30.0589C44.0357 28.6572 44.0357 27.2317 44.0357 25.8299C44.0357 25.7824 44.0119 25.7111 44.0357 25.6636C44.0832 25.5923 44.1545 25.4735 44.2257 25.4497C44.2733 25.426 44.392 25.521 44.4396 25.5923C44.5108 25.7111 44.5584 25.8536 44.6059 25.9962C45.0098 27.4692 45.081 28.966 44.9147 30.4866C44.8435 31.2231 44.5821 31.9121 44.1545 32.5061C43.8456 32.9575 43.4179 33.2901 42.9903 33.6228C42.824 33.7416 42.7527 33.9079 42.7527 34.1217C42.7764 34.9533 42.8002 41.4632 42.8002 44.5756C43.9881 44.9319 45.2474 45.0983 46.5303 45.0983C47.4807 45.0983 48.4073 45.0032 49.3101 44.8132C49.4289 41.9146 49.5715 35.3809 49.6903 34.5256C49.7378 34.2405 49.619 34.0029 49.3814 33.8366C49.12 33.6465 48.8587 33.504 48.5736 33.3377C47.8846 32.91 47.4094 32.316 47.1718 31.532C46.9342 30.7717 46.8867 29.9877 46.958 29.1799C47.053 28.087 47.4332 27.1129 48.1697 26.3051C49.2626 25.1171 50.8782 24.9983 52.0899 26.02C52.8264 26.6139 53.2778 27.398 53.4917 28.3008C53.5629 28.6334 53.6817 28.966 53.6817 29.2987C53.6817 29.8926 53.6342 30.5104 53.5392 31.0806C53.3729 32.0784 52.8739 32.8625 51.9949 33.3852C51.781 33.504 51.5672 33.6465 51.3771 33.8128C51.1158 34.0029 51.0207 34.2643 51.0445 34.5731C51.1158 35.3572 51.2108 41.1305 51.2821 44.2429C56.2952 42.3185 59.859 37.4717 59.859 31.7933C59.859 24.4281 53.8956 18.4647 46.5303 18.4647Z" fill="#FF8702"/>
<path fill-rule="evenodd" clip-rule="evenodd" d="M78.1305 29.7976L73.9727 29.7738C74.0202 30.439 74.044 31.128 74.044 31.7933C74.044 46.9514 61.7132 59.306 46.5313 59.306C31.3494 59.306 19.0186 46.9752 19.0186 31.7933C19.0186 16.6114 31.3494 4.28063 46.5313 4.28063C58.2919 4.28063 68.3656 11.7171 72.2858 22.1235H76.5149C76.2773 20.3416 74.2578 16.5164 73.5925 15.3522C70.3376 9.65011 64.0653 4.39942 57.3653 1.95227C52.1621 0.0753241 46.2224 -0.613682 40.2827 0.621775C29.4725 2.87886 21.6558 9.46004 17.5456 18.4409C13.0552 28.3008 14.0293 40.8216 20.6342 50.1113C23.4853 54.1028 35.6735 65.8634 39.9026 70.0687C41.0193 71.1853 45.8898 75.8896 46.555 76.5073C49.4536 73.6325 52.6611 70.4251 55.6309 67.4552C59.0522 64.0577 66.2748 57.0964 69.2922 53.7464C71.6206 51.1567 71.4067 51.5131 73.5213 48.6858C76.3723 44.8606 79.0333 36.9727 78.1305 29.7976Z" fill="#FF8702"/>
<path fill-rule="evenodd" clip-rule="evenodd" d="M61.5695 16.7302C64.1116 19.4387 64.7294 20.6742 65.5134 22.0997H69.9801C66.1786 12.905 57.1028 6.39514 46.5301 6.39514C32.5362 6.39514 21.1558 17.7756 21.1558 31.7695C21.1558 45.7634 32.5362 57.1439 46.5301 57.1439C60.5241 57.1439 71.9045 45.7634 71.9045 31.7695C71.9045 31.0805 71.8808 30.3915 71.8332 29.7263L61.8546 29.655C61.9258 30.344 61.9734 31.033 61.9734 31.7458C61.9734 33.4089 61.6882 35.072 61.1893 36.6401H66.8201C66.8201 36.6401 66.4638 38.1131 66.4162 38.3032C66.2262 39.0872 65.9886 39.8713 65.6797 40.6078C64.967 42.4135 63.9453 44.1003 62.6386 45.5259C60.9992 47.3315 59.0985 49.0184 56.984 50.2301C43.8454 57.7379 25.6937 49.2085 25.1472 32.3635C24.482 11.9785 49.3812 3.73416 61.5695 16.7302Z" fill="#FF8702"/>
<path d="M10.8953 84.9001C10.5827 84.327 10.1529 83.8907 9.60582 83.5911C9.05879 83.2915 8.42058 83.1418 7.69121 83.1418C6.88369 83.1418 6.16734 83.3241 5.54216 83.6888C4.91698 84.0535 4.42856 84.5745 4.07689 85.2517C3.72523 85.929 3.5494 86.7105 3.5494 87.5962C3.5494 88.5079 3.72523 89.3024 4.07689 89.9797C4.44158 90.6569 4.94303 91.1779 5.58123 91.5426C6.21943 91.9073 6.96183 92.0896 7.80843 92.0896C8.8504 92.0896 9.7035 91.8161 10.3678 91.2691C11.032 90.709 11.4683 89.9341 11.6767 88.9442H6.98788V86.8538H14.3728V89.2373C14.1905 90.188 13.7997 91.0672 13.2006 91.8747C12.6015 92.6822 11.8265 93.3335 10.8757 93.8284C9.93795 94.3103 8.88296 94.5513 7.71075 94.5513C6.39527 94.5513 5.20352 94.2582 4.1355 93.6721C3.08051 93.073 2.24694 92.2459 1.63479 91.1909C1.03566 90.1359 0.736093 88.9377 0.736093 87.5962C0.736093 86.2546 1.03566 85.0564 1.63479 84.0014C2.24694 82.9334 3.08051 82.1063 4.1355 81.5202C5.20352 80.9211 6.38875 80.6215 7.69121 80.6215C9.22811 80.6215 10.5631 80.9992 11.6963 81.7546C12.8294 82.497 13.6109 83.5455 14.0407 84.9001H10.8953ZM19.1316 80.7973V94.4341H16.3964V80.7973H19.1316ZM28.8672 94.4341L25.8585 89.12H24.5691V94.4341H21.8339V80.7973H26.9526C28.0075 80.7973 28.9062 80.9862 29.6486 81.3639C30.391 81.7286 30.9446 82.23 31.3093 82.8682C31.687 83.4934 31.8758 84.1967 31.8758 84.9782C31.8758 85.8769 31.6153 86.6909 31.0944 87.4203C30.5734 88.1367 29.7984 88.6316 28.7695 88.9051L32.0321 94.4341H28.8672ZM24.5691 87.0687H26.8549C27.5973 87.0687 28.1508 86.8928 28.5155 86.5412C28.8802 86.1765 29.0625 85.675 29.0625 85.0368C29.0625 84.4117 28.8802 83.9297 28.5155 83.5911C28.1508 83.2394 27.5973 83.0636 26.8549 83.0636H24.5691V87.0687ZM37.0848 80.7973V94.4341H34.3497V80.7973H37.0848ZM44.5542 80.7973C45.9869 80.7973 47.2437 81.0774 48.3248 81.6374C49.4189 82.1975 50.2589 82.9985 50.845 84.0405C51.4442 85.0694 51.7437 86.2677 51.7437 87.6352C51.7437 89.0028 51.4442 90.2011 50.845 91.23C50.2589 92.2459 49.4189 93.0339 48.3248 93.594C47.2437 94.154 45.9869 94.4341 44.5542 94.4341H39.7872V80.7973H44.5542ZM44.4565 92.1092C45.8892 92.1092 46.9963 91.7184 47.7778 90.937C48.5592 90.1555 48.95 89.0549 48.95 87.6352C48.95 86.2156 48.5592 85.1085 47.7778 84.314C46.9963 83.5064 45.8892 83.1027 44.4565 83.1027H42.5223V92.1092H44.4565ZM65.103 80.7973V94.4341H62.3678V88.6316H56.5263V94.4341H53.7911V80.7973H56.5263V86.4044H62.3678V80.7973H65.103ZM76.1568 91.8357H70.7256L69.8269 94.4341H66.955L71.8587 80.7778H75.0432L79.947 94.4341H77.0555L76.1568 91.8357ZM75.4144 89.6475L73.4412 83.9428L71.468 89.6475H75.4144ZM88.8132 94.4341L85.8045 89.12H84.5151V94.4341H81.78V80.7973H86.8986C87.9536 80.7973 88.8523 80.9862 89.5947 81.3639C90.3371 81.7286 90.8906 82.23 91.2553 82.8682C91.633 83.4934 91.8219 84.1967 91.8219 84.9782C91.8219 85.8769 91.5614 86.6909 91.0404 87.4203C90.5194 88.1367 89.7445 88.6316 88.7155 88.9051L91.9782 94.4341H88.8132ZM84.5151 87.0687H86.8009C87.5433 87.0687 88.0969 86.8928 88.4616 86.5412C88.8262 86.1765 89.0086 85.675 89.0086 85.0368C89.0086 84.4117 88.8262 83.9297 88.4616 83.5911C88.0969 83.2394 87.5433 83.0636 86.8009 83.0636H84.5151V87.0687Z" fill="#FF8702"/>
<path d="M37.0251 112.21C37.0251 112.408 36.9786 112.594 36.8855 112.769C36.7925 112.944 36.6437 113.087 36.439 113.198C36.2343 113.306 35.972 113.36 35.6519 113.36H34.9486V114.934H34.3123V111.055H35.6519C35.9496 111.055 36.2008 111.107 36.4055 111.211C36.6139 111.312 36.7683 111.449 36.8688 111.624C36.973 111.799 37.0251 111.995 37.0251 112.21ZM35.6519 112.841C35.8938 112.841 36.0743 112.787 36.1934 112.679C36.3125 112.568 36.372 112.411 36.372 112.21C36.372 111.786 36.132 111.574 35.6519 111.574H34.9486V112.841H35.6519ZM38.2628 111.055V113.528C38.2628 113.822 38.339 114.043 38.4916 114.192C38.6479 114.341 38.8638 114.415 39.1391 114.415C39.4182 114.415 39.6341 114.341 39.7866 114.192C39.9429 114.043 40.0211 113.822 40.0211 113.528V111.055H40.6574V113.517C40.6574 113.833 40.5886 114.101 40.4509 114.32C40.3132 114.54 40.129 114.704 39.8983 114.812C39.6676 114.92 39.4126 114.974 39.1335 114.974C38.8544 114.974 38.5995 114.92 38.3688 114.812C38.1418 114.704 37.9613 114.54 37.8274 114.32C37.6934 114.101 37.6264 113.833 37.6264 113.517V111.055H38.2628ZM43.501 114.934L42.6079 113.383H42.1223V114.934H41.4859V111.055H42.8256C43.1233 111.055 43.3745 111.107 43.5792 111.211C43.7876 111.315 43.942 111.455 44.0425 111.63C44.1467 111.805 44.1988 112 44.1988 112.216C44.1988 112.469 44.1244 112.7 43.9755 112.908C43.8304 113.113 43.6052 113.252 43.3001 113.327L44.2602 114.934H43.501ZM42.1223 112.875H42.8256C43.0638 112.875 43.2424 112.815 43.3615 112.696C43.4843 112.577 43.5457 112.417 43.5457 112.216C43.5457 112.015 43.4861 111.859 43.3671 111.747C43.248 111.632 43.0675 111.574 42.8256 111.574H42.1223V112.875ZM45.6492 111.569V112.707H46.9888V113.226H45.6492V114.415H47.1563V114.934H45.0128V111.049H47.1563V111.569H45.6492ZM52.7337 111.055L51.2768 114.934H50.54L49.0775 111.055H49.7585L50.9084 114.281L52.0638 111.055H52.7337ZM53.9022 111.569V112.707H55.2418V113.226H53.9022V114.415H55.4093V114.934H53.2658V111.049H55.4093V111.569H53.9022ZM59.0008 112.171C58.9003 111.978 58.7608 111.833 58.5822 111.736C58.4035 111.636 58.197 111.585 57.9626 111.585C57.7058 111.585 57.4769 111.643 57.276 111.758C57.075 111.874 56.9169 112.037 56.8015 112.25C56.6899 112.462 56.6341 112.707 56.6341 112.986C56.6341 113.265 56.6899 113.513 56.8015 113.729C56.9169 113.941 57.075 114.105 57.276 114.22C57.4769 114.335 57.7058 114.393 57.9626 114.393C58.3087 114.393 58.5896 114.296 58.8054 114.103C59.0213 113.909 59.1534 113.647 59.2018 113.316H57.7449V112.808H59.8828V113.305C59.8418 113.606 59.7339 113.883 59.559 114.136C59.3878 114.389 59.1627 114.592 58.8836 114.745C58.6082 114.894 58.3012 114.968 57.9626 114.968C57.5979 114.968 57.2648 114.884 56.9634 114.717C56.662 114.546 56.4219 114.309 56.2433 114.008C56.0684 113.706 55.981 113.366 55.981 112.986C55.981 112.607 56.0684 112.266 56.2433 111.965C56.4219 111.663 56.662 111.429 56.9634 111.262C57.2685 111.09 57.6016 111.005 57.9626 111.005C58.3756 111.005 58.7422 111.107 59.0622 111.312C59.386 111.513 59.6204 111.799 59.7655 112.171H59.0008Z" fill="#2B992F"/>
<path d="M1.04736 112.598H30.3526" stroke="#2B992F" stroke-width="0.646176"/>
<path d="M62.6235 112.598H91.9288" stroke="#2B992F" stroke-width="0.646176"/>
<rect x="1.01855" y="97.5891" width="91.1162" height="11.4356" fill="#FF8702"/>
<path d="M20.57 100.885V101.896H19.1977V106.065H17.9361V101.896H16.5638V100.885H20.57ZM26.4931 105.15H24.5601L24.2502 106.065H22.9296L24.8035 100.885H26.2643L28.1383 106.065H26.8029L26.4931 105.15ZM26.1684 104.176L25.5266 102.28L24.8921 104.176H26.1684ZM33.7772 106.065L32.0361 103.778V106.065H30.7745V100.885H32.0361V103.158L33.7625 100.885H35.2454L33.2386 103.423L35.3192 106.065H33.7772ZM39.2462 101.896V102.944H40.9357V103.918H39.2462V105.054H41.157V106.065H37.9846V100.885H41.157V101.896H39.2462ZM50.8952 105.15H48.9622L48.6524 106.065H47.3317L49.2057 100.885H50.6665L52.5405 106.065H51.2051L50.8952 105.15ZM50.5706 104.176L49.9287 102.28L49.2942 104.176H50.5706ZM62.3036 100.885L60.9535 106.065H59.4263L58.5999 102.656L57.7441 106.065H56.2169L54.9036 100.885H56.2538L56.9989 104.656L57.9212 100.885H59.3082L60.1936 104.656L60.9461 100.885H62.3036ZM68.2262 105.15H66.2932L65.9834 106.065H64.6627L66.5367 100.885H67.9975L69.8715 106.065H68.5361L68.2262 105.15ZM67.9016 104.176L67.2597 102.28L66.6252 104.176H67.9016ZM76.9491 100.885L75.1562 104.353V106.065H73.8946V104.353L72.1018 100.885H73.5331L74.5365 103.055L75.5325 100.885H76.9491Z" fill="white"/>
</svg>
